name Walk8.mot
datacolumns 19
datarows 20
range 1.49500000 1.51400000
endheader

                time	   L_ground_force_vx	   L_ground_force_vy	   L_ground_force_vz	   L_ground_force_px	   L_ground_force_py	   L_ground_force_pz	   R_ground_force_vx	   R_ground_force_vy	   R_ground_force_vz	   R_ground_force_px	   R_ground_force_py	   R_ground_force_pz	   L_ground_torque_x	   L_ground_torque_y	   L_ground_torque_z	   R_ground_torque_x	   R_ground_torque_y	   R_ground_torque_z	
          1.49500000	        -27.15780083	        403.78664255	        -31.86605497	          0.57531236	          0.00000000	          0.08526718	          0.00000000	          0.00000000	          0.00000000	          0.00000000	          0.00000000	          0.00000000	          0.00000000	          2.46017500	          0.00000000	          0.00000000	          0.00000000	          0.00000000	
          1.49600000	        -27.09317920	        402.55009599	        -31.53551497	          0.57604108	          0.00000000	          0.08530013	          0.00000000	          0.00000000	          0.00000000	          0.00000000	          0.00000000	          0.00000000	          0.00000000	          2.45702986	          0.00000000	          0.00000000	          0.00000000	          0.00000000	
          1.49700000	        -27.01510101	        401.37406190	        -31.21008948	          0.57684453	          0.00000000	          0.08542769	          0.00000000	          0.00000000	          0.00000000	          0.00000000	          0.00000000	          0.00000000	          0.00000000	          2.45242828	          0.00000000	          0.00000000	          0.00000000	          0.00000000	
          1.49800000	        -26.91896956	        400.30855576	        -30.89633928	          0.57779412	          0.00000000	          0.08558740	          0.00000000	          0.00000000	          0.00000000	          0.00000000	          0.00000000	          0.00000000	          0.00000000	          2.44601207	          0.00000000	          0.00000000	          0.00000000	          0.00000000	
          1.49900000	        -26.80805191	        399.38711930	        -30.60219210	          0.57889845	          0.00000000	          0.08571348	          0.00000000	          0.00000000	          0.00000000	          0.00000000	          0.00000000	          0.00000000	          0.00000000	          2.43637126	          0.00000000	          0.00000000	          0.00000000	          0.00000000	
          1.50000000	        -26.69643329	        398.58868264	        -30.33627478	          0.58010748	          0.00000000	          0.08573293	          0.00000000	          0.00000000	          0.00000000	          0.00000000	          0.00000000	          0.00000000	          0.00000000	          2.41854382	          0.00000000	          0.00000000	          0.00000000	          0.00000000	
          1.50100000	        -26.59899987	        397.86249617	        -30.10007049	          0.58132587	          0.00000000	          0.08560919	          0.00000000	          0.00000000	          0.00000000	          0.00000000	          0.00000000	          0.00000000	          0.00000000	          2.38639996	          0.00000000	          0.00000000	          0.00000000	          0.00000000	
          1.50200000	        -26.52330279	        397.17668898	        -29.88121161	          0.58243744	          0.00000000	          0.08538231	          0.00000000	          0.00000000	          0.00000000	          0.00000000	          0.00000000	          0.00000000	          0.00000000	          2.33806033	          0.00000000	          0.00000000	          0.00000000	          0.00000000	
          1.50300000	        -26.46413763	        396.52453127	        -29.65143756	          0.58338198	          0.00000000	          0.08513242	          0.00000000	          0.00000000	          0.00000000	          0.00000000	          0.00000000	          0.00000000	          0.00000000	          2.28030092	          0.00000000	          0.00000000	          0.00000000	          0.00000000	
          1.50400000	        -26.40227103	        395.91002907	        -29.38209094	          0.58418202	          0.00000000	          0.08493317	          0.00000000	          0.00000000	          0.00000000	          0.00000000	          0.00000000	          0.00000000	          0.00000000	          2.22602259	          0.00000000	          0.00000000	          0.00000000	          0.00000000	
          1.50500000	        -26.32251299	        395.34668346	        -29.06934360	          0.58487016	          0.00000000	          0.08483255	          0.00000000	          0.00000000	          0.00000000	          0.00000000	          0.00000000	          0.00000000	          0.00000000	          2.18478279	          0.00000000	          0.00000000	          0.00000000	          0.00000000	
          1.50600000	        -26.23053805	        394.84615757	        -28.73724649	          0.58545839	          0.00000000	          0.08482706	          0.00000000	          0.00000000	          0.00000000	          0.00000000	          0.00000000	          0.00000000	          0.00000000	          2.15615253	          0.00000000	          0.00000000	          0.00000000	          0.00000000	
          1.50700000	        -26.13902827	        394.40243977	        -28.41672430	          0.58597708	          0.00000000	          0.08485581	          0.00000000	          0.00000000	          0.00000000	          0.00000000	          0.00000000	          0.00000000	          0.00000000	          2.13369079	          0.00000000	          0.00000000	          0.00000000	          0.00000000	
          1.50800000	        -26.04986845	        394.01267302	        -28.12920458	          0.58648525	          0.00000000	          0.08485020	          0.00000000	          0.00000000	          0.00000000	          0.00000000	          0.00000000	          0.00000000	          0.00000000	          2.11251363	          0.00000000	          0.00000000	          0.00000000	          0.00000000	
          1.50900000	        -25.95823562	        393.70337325	        -27.88321173	          0.58703478	          0.00000000	          0.08479391	          0.00000000	          0.00000000	          0.00000000	          0.00000000	          0.00000000	          0.00000000	          0.00000000	          2.09195732	          0.00000000	          0.00000000	          0.00000000	          0.00000000	
          1.51000000	        -25.86006506	        393.49922635	        -27.67450516	          0.58764470	          0.00000000	          0.08472165	          0.00000000	          0.00000000	          0.00000000	          0.00000000	          0.00000000	          0.00000000	          0.00000000	          2.07399449	          0.00000000	          0.00000000	          0.00000000	          0.00000000	
          1.51100000	        -25.75394399	        393.39005654	        -27.48641793	          0.58831285	          0.00000000	          0.08467233	          0.00000000	          0.00000000	          0.00000000	          0.00000000	          0.00000000	          0.00000000	          0.00000000	          2.06131651	          0.00000000	          0.00000000	          0.00000000	          0.00000000	
          1.51200000	        -25.64209624	        393.36685694	        -27.29065692	          0.58903707	          0.00000000	          0.08467461	          0.00000000	          0.00000000	          0.00000000	          0.00000000	          0.00000000	          0.00000000	          0.00000000	          2.05699097	          0.00000000	          0.00000000	          0.00000000	          0.00000000	
          1.51300000	        -25.52650664	        393.46188154	        -27.05646077	          0.58980372	          0.00000000	          0.08476102	          0.00000000	          0.00000000	          0.00000000	          0.00000000	          0.00000000	          0.00000000	          0.00000000	          2.06290398	          0.00000000	          0.00000000	          0.00000000	          0.00000000	
          1.51400000	        -25.40653352	        393.72287683	        -26.77092702	          0.59055743	          0.00000000	          0.08494374	          0.00000000	          0.00000000	          0.00000000	          0.00000000	          0.00000000	          0.00000000	          0.00000000	          2.07656491	          0.00000000	          0.00000000	          0.00000000	          0.00000000	
